<svg xmlns="http://www.w3.org/2000/svg" fill="none" viewBox="0 0 20 20"><path fill="#000" d="M18.207.226a.435.435 0 0 0-.762 0l-.555 1.012-1.012.555a.435.435 0 0 0 0 .762l1.012.555.555 1.012a.435.435 0 0 0 .762 0l.555-1.012 1.012-.555a.435.435 0 0 0 0-.762l-1.012-.555-.555-1.012Z"/><path fill="#000" fill-rule="evenodd" d="M10 1.304a.87.87 0 0 1 .825.597l1.84 5.556 5.423 1.714a.87.87 0 0 1 0 1.658l-5.423 1.714-1.84 5.556a.87.87 0 0 1-1.65 0l-1.84-5.556-5.423-1.714a.87.87 0 0 1 0-1.658l5.423-1.714 1.84-5.556A.87.87 0 0 1 10 1.304Zm0 3.637L8.847 8.426a.87.87 0 0 1-.564.556L5.06 10l3.223 1.018a.87.87 0 0 1 .564.556L10 15.06l1.153-3.485a.87.87 0 0 1 .564-.556L14.94 10l-3.223-1.018a.87.87 0 0 1-.564-.556L10 4.94Z" clip-rule="evenodd"/><path fill="#000" d="M2.555 15.878a.435.435 0 0 0-.762 0l-.555 1.012-1.012.555a.435.435 0 0 0 0 .762l1.012.555.555 1.012a.435.435 0 0 0 .762 0l.555-1.012 1.012-.555a.435.435 0 0 0 0-.762L3.11 16.89l-.555-1.012Z"/></svg>
