<svg width="21" height="20" viewBox="0 0 21 20" fill="none" xmlns="http://www.w3.org/2000/svg">
<path d="M12.1759 18.8606C11.9245 18.8606 11.704 18.6831 11.6408 18.4281L10.9561 15.6848C10.512 13.9065 9.18127 12.5138 7.48196 12.0491L4.86053 11.3326C4.61689 11.2664 4.44727 11.0357 4.44727 10.7726C4.44727 10.5096 4.61689 10.2788 4.86053 10.2127L7.48196 9.49617C9.18127 9.03141 10.512 7.63877 10.9561 5.86044L11.6408 3.11711C11.704 2.86214 11.9245 2.68463 12.1759 2.68463C12.4272 2.68463 12.6477 2.86214 12.711 3.11711L13.3956 5.86044C13.8397 7.63877 15.1705 9.03141 16.8698 9.49617L19.4912 10.2127C19.7349 10.2788 19.9045 10.5096 19.9045 10.7726C19.9045 11.0357 19.7349 11.2664 19.4912 11.3326L16.8698 12.0491C15.1705 12.5138 13.8397 13.9065 13.3956 15.6848L12.711 18.4281C12.6477 18.6831 12.4272 18.8606 12.1759 18.8606Z" stroke="#1C2024" stroke-width="1.5"/>
<path d="M4.30281 8.18282C4.12086 8.18282 3.95586 8.06179 3.89264 7.88267L3.51176 6.78049C3.2712 6.08498 2.75308 5.54276 2.09002 5.29264L1.03836 4.89566C0.865652 4.83111 0.75 4.65844 0.75 4.46641C0.75 4.27438 0.865652 4.10171 1.03836 4.03716L2.09002 3.64018C2.75308 3.38844 3.27274 2.84623 3.51176 2.15233L3.8911 1.05177C3.95432 0.871029 4.11777 0.75 4.30127 0.75C4.48477 0.75 4.64977 0.871029 4.71145 1.05177L5.09079 2.15233C5.33134 2.84784 5.84946 3.39005 6.51253 3.64018L7.56419 4.03877C7.73689 4.10332 7.85254 4.27599 7.85254 4.46802C7.85254 4.66006 7.73689 4.83111 7.56573 4.89727L6.51407 5.29586C5.84946 5.5476 5.33134 6.08982 5.09233 6.78372L4.71299 7.88428C4.65131 8.06502 4.61682 8.18282 4.43332 8.18282H4.30281Z" stroke="#1C2024" stroke-width="1.5"/>
<path d="M6.2507 18.2399C6.29851 18.3787 6.42495 18.4723 6.56682 18.4723C6.72099 18.4702 6.78981 18.4239 6.87985 18.2415L7.08339 17.6541C7.20059 17.3136 7.45502 17.0474 7.78039 16.9247L8.34168 16.7133C8.4743 16.6633 8.56373 16.5293 8.56373 16.3825C8.56373 16.2356 8.4743 16.1033 8.34168 16.0533L7.78039 15.8403C7.45502 15.7176 7.20059 15.4514 7.08339 15.1109L6.87985 14.5235C6.83204 14.3863 6.7056 14.2927 6.56528 14.2927C6.42495 14.2927 6.29696 14.3863 6.2507 14.5235L6.04716 15.1109C5.92996 15.4514 5.67553 15.7176 5.35016 15.8403L4.78887 16.0533C4.6578 16.1033 4.56836 16.2356 4.56836 16.3825C4.56836 16.5293 4.6578 16.6617 4.79041 16.7117L5.35171 16.9247C5.67707 17.0474 5.93151 17.3136 6.0487 17.6541L6.2507 18.2399Z" stroke="#1C2024" stroke-width="1.5"/>
</svg>
