<svg width="24" height="22" viewBox="0 0 24 22" fill="none" xmlns="http://www.w3.org/2000/svg">
<path d="M14.315 22C14.0001 22 13.7237 21.7844 13.6445 21.4746L12.7865 18.1422C12.23 15.9819 10.5624 14.2902 8.43293 13.7256L5.14792 12.8553C4.84261 12.7749 4.63005 12.4946 4.63005 12.1751C4.63005 11.8555 4.84261 11.5752 5.14792 11.4948L8.43293 10.6245C10.5624 10.0599 12.23 8.36819 12.7865 6.20795L13.6445 2.87547C13.7237 2.56574 14.0001 2.35011 14.315 2.35011C14.63 2.35011 14.9063 2.56574 14.9856 2.87547L15.8435 6.20795C16.4 8.36819 18.0677 10.0599 20.1971 10.6245L23.4821 11.4948C23.7874 11.5752 24 11.8555 24 12.1751C24 12.4946 23.7874 12.7749 23.4821 12.8553L20.1971 13.7256C18.0677 14.2902 16.4 15.9819 15.8435 18.1422L14.9856 21.4746C14.9063 21.7844 14.63 22 14.315 22Z" fill="url(#paint0_linear_682_7397)"/>
<path d="M4.45215 9.02907C4.22413 9.02907 4.01737 8.88205 3.93814 8.66446L3.46085 7.32558C3.1594 6.4807 2.51013 5.82204 1.67922 5.5182L0.361351 5.03597C0.144927 4.95756 0 4.74781 0 4.51453C0 4.28126 0.144927 4.07151 0.361351 3.9931L1.67922 3.51087C2.51013 3.20506 3.16134 2.54641 3.46085 1.70349L3.93621 0.366573C4.01544 0.147021 4.22027 0 4.45022 0C4.68017 0 4.88693 0.147021 4.96423 0.366573L5.43959 1.70349C5.74103 2.54837 6.3903 3.20703 7.22122 3.51087L8.53909 3.99506C8.75551 4.07347 8.90044 4.28322 8.90044 4.51649C8.90044 4.74977 8.75551 4.95756 8.54102 5.03793L7.22315 5.52212C6.3903 5.82792 5.74103 6.48658 5.44152 7.3295L4.96616 8.66642C4.88886 8.88597 4.6821 9.03299 4.45215 9.03299V9.02907Z" fill="url(#paint1_linear_682_7397)"/>
<path d="M7.28683 21.5283C7.10906 21.5283 6.9506 21.4146 6.8907 21.246L6.63756 20.5344C6.4907 20.1208 6.17186 19.7973 5.76414 19.6483L5.06076 19.3896C4.89458 19.3288 4.7825 19.1681 4.7825 18.9897C4.7825 18.8113 4.89458 18.6506 5.05883 18.5898L5.7622 18.331C6.16993 18.182 6.48877 17.8586 6.63563 17.445L6.8907 16.7314C6.94867 16.5648 7.10906 16.4511 7.2849 16.4511C7.46075 16.4511 7.6192 16.5648 7.6791 16.7314L7.93417 17.445C8.08103 17.8586 8.39987 18.182 8.8076 18.331L9.51098 18.5898C9.67716 18.6506 9.78924 18.8113 9.78924 18.9897C9.78924 19.1681 9.67716 19.3308 9.51098 19.3915L8.8076 19.6483C8.39987 19.7973 8.08103 20.1208 7.93417 20.5344L7.6791 21.2479C7.6192 21.4165 7.46075 21.5302 7.2849 21.5302L7.28683 21.5283Z" fill="url(#paint2_linear_682_7397)"/>
<defs>
<linearGradient id="paint0_linear_682_7397" x1="4" y1="22" x2="24.5894" y2="14.6227" gradientUnits="userSpaceOnUse">
<stop stop-color="#0550E6"/>
<stop offset="1" stop-color="#8FB4FF"/>
</linearGradient>
<linearGradient id="paint1_linear_682_7397" x1="4" y1="22" x2="24.5894" y2="14.6227" gradientUnits="userSpaceOnUse">
<stop stop-color="#0550E6"/>
<stop offset="1" stop-color="#8FB4FF"/>
</linearGradient>
<linearGradient id="paint2_linear_682_7397" x1="4" y1="22" x2="24.5894" y2="14.6227" gradientUnits="userSpaceOnUse">
<stop stop-color="#0550E6"/>
<stop offset="1" stop-color="#8FB4FF"/>
</linearGradient>
</defs>
</svg>