<svg xmlns="http://www.w3.org/2000/svg" viewBox="7 7 30 30"><path d="M30.207 12.226a.435.435 0 0 0-.762 0l-.555 1.012-1.012.555a.435.435 0 0 0 0 .762l1.012.555.555 1.012a.435.435 0 0 0 .762 0l.555-1.012 1.012-.555a.435.435 0 0 0 0-.762l-1.012-.555-.555-1.012Z"><animateTransform attributeName="transform" calcMode="spline" dur="3s" keySplines="0.5 0 0.5 1; 0.5 0 0.5 1" keyTimes="0; 0.5; 1" repeatCount="indefinite" type="translate" values="0 0; 3 -3; 0 0"/></path><path fill="transparent" stroke="#000" stroke-linecap="round" stroke-linejoin="round" stroke-width="1.75" d="m22 14 2 6 5.5 2-5.5 2-2 6.5-2-6.5-6-2 6-2 2-6Z"><animateTransform attributeName="transform" calcMode="spline" dur="3s" from="0 22 22" keySplines="0.5 0 0.5 1" keyTimes="0;1" repeatCount="indefinite" to="360 22 22" type="rotate"/></path><path d="M14.555 27.878a.435.435 0 0 0-.762 0l-.555 1.012-1.012.555a.435.435 0 0 0 0 .762l1.012.555.555 1.012a.435.435 0 0 0 .762 0l.555-1.012 1.012-.555a.435.435 0 0 0 0-.762l-1.012-.555-.555-1.012Z"><animateTransform attributeName="transform" calcMode="spline" dur="3s" keySplines="0.5 0 0.5 1; 0.5 0 0.5 1" keyTimes="0; 0.5; 1" repeatCount="indefinite" type="translate" values="0 0; -3 3; 0 0"/></path></svg>
