<svg width="16" height="15" viewBox="0 0 16 15" fill="none" xmlns="http://www.w3.org/2000/svg">
<g clip-path="url(#clip0_872_9039)">
<path d="M9.4446 14.6182C9.24352 14.6182 9.06712 14.478 9.01654 14.2767L8.46881 12.1109C8.11353 10.707 7.04892 9.60755 5.68948 9.24064L3.59233 8.67499C3.39742 8.62275 3.26172 8.44057 3.26172 8.23291C3.26172 8.02525 3.39742 7.84307 3.59233 7.79084L5.68948 7.22518C7.04892 6.85827 8.11353 5.75882 8.46881 4.35488L9.01654 2.18909C9.06712 1.9878 9.24352 1.84766 9.4446 1.84766C9.64568 1.84766 9.82209 1.9878 9.87267 2.18909L10.4204 4.35488C10.7757 5.75882 11.8403 6.85827 13.1997 7.22518L15.2969 7.79084C15.4918 7.84307 15.6275 8.02525 15.6275 8.23291C15.6275 8.44057 15.4918 8.62275 15.2969 8.67499L13.1997 9.24064C11.8403 9.60755 10.7757 10.707 10.4204 12.1109L9.87267 14.2767C9.82209 14.478 9.64568 14.6182 9.4446 14.6182Z" fill="white"/>
<path d="M3.14889 6.18833C3.00333 6.18833 2.87133 6.09278 2.82075 5.95136L2.51605 5.08123C2.3236 4.53214 1.90911 4.10407 1.37865 3.9066L0.537327 3.5932C0.399162 3.54224 0.306641 3.40593 0.306641 3.25432C0.306641 3.10271 0.399162 2.9664 0.537327 2.91544L1.37865 2.60204C1.90911 2.40329 2.32484 1.97523 2.51605 1.42741L2.81952 0.558549C2.8701 0.415862 3.00086 0.320312 3.14766 0.320312C3.29446 0.320312 3.42646 0.415862 3.4758 0.558549L3.77927 1.42741C3.97171 1.9765 4.38621 2.40457 4.91666 2.60204L5.75799 2.91671C5.89615 2.96767 5.98868 3.10399 5.98868 3.25559C5.98868 3.4072 5.89615 3.54224 5.75922 3.59448L4.9179 3.90915C4.38621 4.1079 3.97171 4.53596 3.7805 5.08377L3.47703 5.95264C3.42769 6.09533 3.29569 6.19088 3.14889 6.19088V6.18833Z" fill="white"/>
<path d="M4.96009 14.3116C4.8466 14.3116 4.74545 14.2377 4.7072 14.1281L4.5456 13.6657C4.45184 13.3968 4.2483 13.1866 3.98801 13.0898L3.53897 12.9216C3.43288 12.8822 3.36133 12.7777 3.36133 12.6618C3.36133 12.5458 3.43288 12.4414 3.53774 12.4019L3.98677 12.2337C4.24706 12.1369 4.45061 11.9267 4.54437 11.6578L4.7072 11.1941C4.74421 11.0858 4.8466 11.0119 4.95886 11.0119C5.07112 11.0119 5.17228 11.0858 5.21052 11.1941L5.37336 11.6578C5.46711 11.9267 5.67066 12.1369 5.93095 12.2337L6.37999 12.4019C6.48608 12.4414 6.55763 12.5458 6.55763 12.6618C6.55763 12.7777 6.48608 12.8834 6.37999 12.9229L5.93095 13.0898C5.67066 13.1866 5.46711 13.3968 5.37336 13.6657L5.21052 14.1294C5.17228 14.239 5.07112 14.3128 4.95886 14.3128L4.96009 14.3116Z" fill="white"/>
</g>
<defs>
<clipPath id="clip0_872_9039">
<rect width="16" height="15" fill="white"/>
</clipPath>
</defs>
</svg>
