<svg width="20" height="20" viewBox="0 0 20 20" fill="none" xmlns="http://www.w3.org/2000/svg">
<path d="M18.2074 0.225842C18.1311 0.0865787 17.9849 0 17.8261 0C17.6673 0 17.5211 0.0865788 17.4448 0.225842L16.8902 1.23798L15.878 1.79263C15.7388 1.86894 15.6522 2.01511 15.6522 2.17391C15.6522 2.33272 15.7388 2.47889 15.878 2.5552L16.8902 3.10984L17.4448 4.12198C17.5211 4.26125 17.6673 4.34783 17.8261 4.34783C17.9849 4.34783 18.1311 4.26125 18.2074 4.12198L18.762 3.10984L19.7742 2.5552C19.9134 2.47889 20 2.33272 20 2.17391C20 2.01511 19.9134 1.86894 19.7742 1.79263L18.762 1.23798L18.2074 0.225842Z" fill="#217bfe"/>
<path fill-rule="evenodd" clip-rule="evenodd" d="M10 1.30435C10.375 1.30435 10.7077 1.54471 10.8255 1.90068L12.6647 7.45743L18.088 9.17083C18.4498 9.28511 18.6957 9.62067 18.6957 10C18.6957 10.3793 18.4498 10.7149 18.088 10.8292L12.6647 12.5426L10.8255 18.0993C10.7077 18.4553 10.375 18.6957 10 18.6957C9.62504 18.6957 9.2923 18.4553 9.17448 18.0993L7.33528 12.5426L1.91195 10.8292C1.55024 10.7149 1.30435 10.3793 1.30435 10C1.30435 9.62067 1.55024 9.28511 1.91195 9.17083L7.33528 7.45743L9.17448 1.90068C9.2923 1.54471 9.62504 1.30435 10 1.30435ZM10 4.94129L8.84664 8.42592C8.75892 8.69095 8.54928 8.89775 8.28308 8.98185L5.06039 10L8.28308 11.0181C8.54928 11.1023 8.75892 11.3091 8.84664 11.5741L10 15.0587L11.1534 11.5741C11.2411 11.3091 11.4507 11.1023 11.7169 11.0181L14.9396 10L11.7169 8.98185C11.4507 8.89775 11.2411 8.69095 11.1534 8.42592L10 4.94129Z" fill="#217bfe"/>
<path d="M2.5552 15.878C2.47889 15.7388 2.33272 15.6522 2.17391 15.6522C2.01511 15.6522 1.86894 15.7388 1.79263 15.878L1.23798 16.8902L0.225842 17.4448C0.0865788 17.5211 0 17.6673 0 17.8261C0 17.9849 0.0865787 18.1311 0.225842 18.2074L1.23798 18.762L1.79263 19.7742C1.86894 19.9134 2.01511 20 2.17391 20C2.33272 20 2.47889 19.9134 2.5552 19.7742L3.10984 18.762L4.12198 18.2074C4.26125 18.1311 4.34783 17.9849 4.34783 17.8261C4.34783 17.6673 4.26125 17.5211 4.12198 17.4448L3.10984 16.8902L2.5552 15.878Z" fill="#217bfe"/>
</svg>
