<?xml version="1.0" encoding="UTF-8" standalone="no"?>
<!DOCTYPE svg PUBLIC "-//W3C//DTD SVG 1.1//EN" "http://www.w3.org/Graphics/SVG/1.1/DTD/svg11.dtd">
<svg width="100%" height="100%" viewBox="0 0 16 16" version="1.1" xmlns="http://www.w3.org/2000/svg" xmlns:xlink="http://www.w3.org/1999/xlink" xml:space="preserve" xmlns:serif="http://www.serif.com/" style="fill-rule:evenodd;clip-rule:evenodd;stroke-linejoin:round;stroke-miterlimit:2;">
    <g transform="matrix(0.560073,0.560073,-0.857834,0.857834,3.49901,-2.81902)">
        <path d="M1.131,4.689C1.005,4.689 0.885,4.656 0.795,4.598C0.706,4.54 0.656,4.461 0.656,4.379C0.656,4.008 0.656,3.388 0.656,3.001C0.656,2.81 0.894,2.655 1.187,2.655C2.906,2.655 8.205,2.655 8.205,2.655L8.205,0.766L12.656,3.672L8.205,6.578L8.205,4.689L1.131,4.689Z" style="fill:rgb(190,190,190);"/>
    </g>
    <g transform="matrix(-0.560073,-0.560073,0.857834,-0.857834,12.501,18.819)">
        <path d="M1.131,4.689C1.005,4.689 0.885,4.656 0.795,4.598C0.706,4.54 0.656,4.461 0.656,4.379C0.656,4.008 0.656,3.388 0.656,3.001C0.656,2.81 0.894,2.655 1.187,2.655C2.906,2.655 8.205,2.655 8.205,2.655L8.205,0.766L12.656,3.672L8.205,6.578L8.205,4.689L1.131,4.689Z" style="fill:rgb(190,190,190);"/>
    </g>
</svg>
