<svg viewBox="0 0 21 21" fill="none" xmlns="http://www.w3.org/2000/svg">
  <path d="M14.6709 7.07906C14.7758 7.18358 14.859 7.30777 14.9158 7.44452C14.9726 7.58126 15.0018 7.72787 15.0018 7.87594C15.0018 8.024 14.9726 8.17061 14.9158 8.30736C14.859 8.4441 14.7758 8.5683 14.6709 8.67281L9.42094 13.9228C9.31643 14.0277 9.19223 14.1109 9.05549 14.1677C8.91874 14.2245 8.77213 14.2537 8.62407 14.2537C8.476 14.2537 8.32939 14.2245 8.19265 14.1677C8.0559 14.1109 7.93171 14.0277 7.82719 13.9228L5.57719 11.6728C5.47254 11.5682 5.38953 11.4439 5.3329 11.3072C5.27627 11.1705 5.24712 11.0239 5.24712 10.8759C5.24712 10.7279 5.27627 10.5814 5.3329 10.4447C5.38953 10.3079 5.47254 10.1837 5.57719 10.0791C5.68184 9.97442 5.80607 9.8914 5.9428 9.83477C6.07953 9.77814 6.22607 9.74899 6.37407 9.74899C6.52206 9.74899 6.6686 9.77814 6.80533 9.83477C6.94206 9.8914 7.06629 9.97442 7.17094 10.0791L8.625 11.5312L13.0791 7.07625C13.1837 6.97184 13.308 6.88908 13.4446 6.8327C13.5813 6.77633 13.7277 6.74745 13.8756 6.74771C14.0234 6.74797 14.1698 6.77737 14.3062 6.83422C14.4427 6.89108 14.5666 6.97428 14.6709 7.07906ZM20.25 10.125C20.25 12.1275 19.6562 14.0851 18.5436 15.7501C17.4311 17.4152 15.8498 18.7129 13.9997 19.4793C12.1496 20.2456 10.1138 20.4461 8.14971 20.0555C6.18566 19.6648 4.38156 18.7005 2.96555 17.2845C1.54954 15.8685 0.585229 14.0643 0.194554 12.1003C-0.196122 10.1362 0.00438702 8.10043 0.770724 6.25033C1.53706 4.40023 2.83481 2.81892 4.49986 1.70637C6.1649 0.593821 8.12247 0 10.125 0C12.8094 0.00297771 15.383 1.07067 17.2812 2.96883C19.1793 4.86699 20.247 7.4406 20.25 10.125ZM18 10.125C18 8.56747 17.5381 7.04492 16.6728 5.74988C15.8075 4.45485 14.5776 3.44549 13.1386 2.84945C11.6997 2.25341 10.1163 2.09746 8.58867 2.40132C7.06107 2.70517 5.65788 3.4552 4.55654 4.55653C3.4552 5.65787 2.70518 7.06106 2.40132 8.58866C2.09746 10.1163 2.25341 11.6997 2.84945 13.1386C3.44549 14.5776 4.45485 15.8075 5.74989 16.6728C7.04493 17.5381 8.56748 18 10.125 18C12.2129 17.9978 14.2146 17.1674 15.691 15.691C17.1674 14.2146 17.9978 12.2129 18 10.125Z" fill="#008542"/>
</svg>
