<svg viewBox="0 0 19 19" fill="none" xmlns="http://www.w3.org/2000/svg">
  <path d="M18.75 7.125C18.75 7.42337 18.6315 7.70952 18.4205 7.9205C18.2095 8.13147 17.9234 8.25 17.625 8.25C17.3266 8.25 17.0405 8.13147 16.8295 7.9205C16.6185 7.70952 16.5 7.42337 16.5 7.125V3.84375L10.9209 9.42281C10.7096 9.63416 10.4229 9.75289 10.1241 9.75289C9.82518 9.75289 9.53853 9.63416 9.32719 9.42281C9.11584 9.21147 8.99711 8.92482 8.99711 8.62594C8.99711 8.32705 9.11584 8.04041 9.32719 7.82906L14.9062 2.25H11.625C11.3266 2.25 11.0405 2.13147 10.8295 1.9205C10.6185 1.70952 10.5 1.42337 10.5 1.125C10.5 0.826631 10.6185 0.540483 10.8295 0.329505C11.0405 0.118526 11.3266 0 11.625 0H17.625C17.9234 0 18.2095 0.118526 18.4205 0.329505C18.6315 0.540483 18.75 0.826631 18.75 1.125V7.125ZM14.625 9.375C14.3266 9.375 14.0405 9.49353 13.8295 9.70451C13.6185 9.91548 13.5 10.2016 13.5 10.5V16.5H2.25V5.25H8.25C8.54837 5.25 8.83452 5.13147 9.0455 4.9205C9.25647 4.70952 9.375 4.42337 9.375 4.125C9.375 3.82663 9.25647 3.54048 9.0455 3.3295C8.83452 3.11853 8.54837 3 8.25 3H1.875C1.37772 3 0.900806 3.19754 0.549175 3.54917C0.197544 3.90081 0 4.37772 0 4.875V16.875C0 17.3723 0.197544 17.8492 0.549175 18.2008C0.900806 18.5525 1.37772 18.75 1.875 18.75H13.875C14.3723 18.75 14.8492 18.5525 15.2008 18.2008C15.5525 17.8492 15.75 17.3723 15.75 16.875V10.5C15.75 10.2016 15.6315 9.91548 15.4205 9.70451C15.2095 9.49353 14.9234 9.375 14.625 9.375Z" fill="black"/>
</svg>
