<svg viewBox="0 0 21 21" fill="none" xmlns="http://www.w3.org/2000/svg">
<path d="M10.1844 5.31208C9.22027 5.31208 8.27773 5.598 7.47604 6.13367C6.67436 6.66934 6.04951 7.43071 5.68054 8.3215C5.31156 9.21229 5.21502 10.1925 5.40312 11.1382C5.59122 12.0838 6.05552 12.9524 6.7373 13.6342C7.41908 14.316 8.28773 14.7803 9.23338 14.9684C10.179 15.1565 11.1592 15.06 12.05 14.691C12.9408 14.322 13.7022 13.6972 14.2379 12.8955C14.7735 12.0938 15.0594 11.1513 15.0594 10.1871C15.058 8.89461 14.5439 7.6555 13.63 6.74158C12.716 5.82767 11.4769 5.31357 10.1844 5.31208ZM10.1844 12.8121C9.66527 12.8121 9.15776 12.6581 8.72608 12.3697C8.2944 12.0813 7.95795 11.6713 7.75927 11.1916C7.56059 10.712 7.5086 10.1842 7.60989 9.67497C7.71117 9.16577 7.96118 8.69804 8.32829 8.33093C8.69541 7.96382 9.16314 7.71381 9.67234 7.61252C10.1815 7.51124 10.7093 7.56322 11.189 7.7619C11.6686 7.96058 12.0786 8.29703 12.3671 8.72871C12.6555 9.16039 12.8094 9.66791 12.8094 10.1871C12.8094 10.8833 12.5329 11.551 12.0406 12.0432C11.5483 12.5355 10.8806 12.8121 10.1844 12.8121ZM18.8094 10.2611V10.113L20.1219 8.47146C20.2321 8.33391 20.3084 8.17241 20.3448 7.99996C20.3811 7.82751 20.3764 7.64894 20.331 7.47865C20.0942 6.58531 19.7402 5.72724 19.2782 4.92677C19.1892 4.77413 19.0655 4.64459 18.9171 4.54866C18.7687 4.45272 18.5999 4.39309 18.4241 4.37458L16.3354 4.14021L16.2313 4.03615L15.9969 1.94646C15.9783 1.7709 15.9186 1.6022 15.8227 1.45399C15.7267 1.30579 15.5973 1.18224 15.4448 1.09334C14.6442 0.629918 13.7858 0.274638 12.8919 0.0367725C12.7215 -0.00791016 12.5429 -0.0119313 12.3707 0.0250332C12.1984 0.0619976 12.0372 0.138914 11.9001 0.249585L10.2585 1.56209H10.1104L8.46882 0.249585C8.33128 0.139411 8.16977 0.0630921 7.99732 0.0267786C7.82488 -0.00953495 7.64631 -0.00482708 7.47601 0.0405226C6.58244 0.278846 5.72436 0.634436 4.92414 1.09802C4.77209 1.18656 4.64292 1.30952 4.54702 1.45704C4.45112 1.60455 4.39116 1.7725 4.37195 1.9474L4.13757 4.03615L4.03351 4.14021L1.94382 4.37458C1.76827 4.39323 1.59957 4.45293 1.45136 4.54886C1.30315 4.64479 1.1796 4.77425 1.0907 4.92677C0.628584 5.72749 0.274568 6.58589 0.0378865 7.47959C-0.00730835 7.64974 -0.0119367 7.82813 0.0243739 8.0004C0.0606845 8.17267 0.13692 8.33402 0.246949 8.47146L1.55945 10.113V10.2611L0.246949 11.9027C0.136775 12.0403 0.060456 12.2018 0.0241425 12.3742C-0.012171 12.5467 -0.00746317 12.7252 0.0378865 12.8955C0.276505 13.7891 0.632412 14.6472 1.09632 15.4474C1.18477 15.5993 1.30758 15.7284 1.45493 15.8243C1.60227 15.9202 1.77003 15.9802 1.94476 15.9996L4.03351 16.2321L4.13757 16.3361L4.37195 18.4277C4.3906 18.6033 4.4503 18.772 4.54622 18.9202C4.64215 19.0684 4.77161 19.1919 4.92414 19.2808C5.72466 19.7443 6.58307 20.0995 7.47695 20.3374C7.64739 20.3821 7.82595 20.3861 7.99824 20.3491C8.17052 20.3122 8.33171 20.2353 8.46882 20.1246L10.1104 18.8121H10.2585L11.9001 20.1246C12.0376 20.2348 12.1991 20.3111 12.3716 20.3474C12.544 20.3837 12.7226 20.379 12.8929 20.3336C13.7862 20.0968 14.6443 19.7428 15.4448 19.2808C15.5972 19.1925 15.7267 19.0696 15.8229 18.9221C15.9192 18.7746 15.9794 18.6065 15.9988 18.4315L16.2313 16.3427L16.3354 16.2386L18.4251 15.9996C18.6001 15.9802 18.7682 15.9199 18.9157 15.8237C19.0633 15.7275 19.1861 15.5979 19.2744 15.4455C19.7379 14.645 20.0931 13.7866 20.331 12.8927C20.3759 12.7228 20.3804 12.5448 20.3441 12.3729C20.3078 12.201 20.2317 12.0399 20.1219 11.9027L18.8094 10.2611ZM16.5482 9.80271C16.5632 10.0587 16.5632 10.3154 16.5482 10.5715C16.5314 10.8498 16.6186 11.1244 16.7929 11.3421L17.9966 12.8468C17.883 13.1831 17.7474 13.5116 17.5907 13.8302L15.6754 14.043C15.3981 14.0747 15.1425 14.2084 14.9582 14.418C14.7879 14.6099 14.6063 14.7915 14.4144 14.9618C14.2048 15.146 14.0712 15.4017 14.0394 15.679L13.8276 17.5933C13.5091 17.7507 13.1805 17.8869 12.8441 18.0011L11.3394 16.7965C11.1398 16.6371 10.8918 16.5505 10.6363 16.5508C10.6138 16.5508 10.5913 16.5508 10.5688 16.5508C10.3128 16.5658 10.0561 16.5658 9.80007 16.5508C9.52194 16.5344 9.24752 16.6212 9.02945 16.7946L7.52476 17.9993C7.18841 17.8856 6.85989 17.75 6.54132 17.5933L6.32851 15.678C6.29681 15.4007 6.16315 15.1451 5.95351 14.9608C5.76164 14.7905 5.58007 14.609 5.40976 14.4171C5.22549 14.2074 4.96988 14.0738 4.69257 14.0421L2.7782 13.8302C2.62086 13.5117 2.48463 13.1832 2.37039 12.8468L3.57414 11.3421C3.74838 11.1244 3.83558 10.8498 3.81882 10.5715C3.80382 10.3154 3.80382 10.0587 3.81882 9.80271C3.83558 9.52439 3.74838 9.24976 3.57414 9.03208L2.37226 7.5274C2.48589 7.19105 2.6215 6.86253 2.7782 6.54396L4.69351 6.33115C4.97082 6.29944 5.22643 6.16579 5.4107 5.95615C5.58101 5.76428 5.76258 5.5827 5.95445 5.4124C6.16409 5.22813 6.29774 4.97251 6.32945 4.69521L6.54132 2.78084C6.85985 2.6235 7.18837 2.48726 7.52476 2.37302L9.02945 3.57771C9.24752 3.75114 9.52194 3.83794 9.80007 3.82146C10.0561 3.80646 10.3128 3.80646 10.5688 3.82146C10.847 3.83848 11.1216 3.75162 11.3394 3.57771L12.8441 2.37302C13.1805 2.48726 13.5091 2.6235 13.8276 2.78084L14.0404 4.69615C14.0721 4.97345 14.2057 5.22907 14.4154 5.41334C14.6073 5.58364 14.7888 5.76521 14.9591 5.95708C15.1434 6.16672 15.399 6.30038 15.6763 6.33208L17.5907 6.54396C17.748 6.86248 17.8843 7.191 17.9985 7.5274L16.7948 9.03208C16.6198 9.24949 16.532 9.52415 16.5482 9.80271Z" fill="currentColor"/>
</svg>
