<svg viewBox="0 0 29 26" fill="none" xmlns="http://www.w3.org/2000/svg">
  <path d="M28.5341 20.7629L17.6029 1.77913C17.2863 1.23765 16.8334 0.788497 16.2893 0.476366C15.7452 0.164235 15.1289 0 14.5016 0C13.8744 0 13.2581 0.164235 12.714 0.476366C12.1699 0.788497 11.717 1.23765 11.4004 1.77913L0.469142 20.7629C0.161917 21.2883 0 21.8861 0 22.4948C0 23.1034 0.161917 23.7012 0.469142 24.2266C0.782253 24.7708 1.2345 25.2219 1.77949 25.5336C2.32448 25.8453 2.94259 26.0064 3.57039 26.0004H25.4329C26.0603 26.006 26.6779 25.8447 27.2224 25.533C27.7669 25.2213 28.2187 24.7704 28.5316 24.2266C28.8392 23.7014 29.0016 23.1038 29.002 22.4951C29.0025 21.8864 28.841 21.2886 28.5341 20.7629ZM25.9341 22.7254C25.8833 22.812 25.81 22.8833 25.722 22.9317C25.634 22.9801 25.5345 23.0038 25.4341 23.0004H3.57039C3.47001 23.0038 3.37055 22.9801 3.28254 22.9317C3.19453 22.8833 3.12123 22.812 3.07039 22.7254C3.02727 22.6553 3.00444 22.5746 3.00444 22.4923C3.00444 22.4099 3.02727 22.3292 3.07039 22.2591L14.0016 3.27538C14.0558 3.19206 14.1299 3.12359 14.2172 3.07619C14.3045 3.02879 14.4023 3.00396 14.5016 3.00396C14.601 3.00396 14.6988 3.02879 14.7861 3.07619C14.8734 3.12359 14.9475 3.19206 15.0016 3.27538L25.9316 22.2591C25.9751 22.329 25.9984 22.4096 25.9988 22.4919C25.9993 22.5742 25.9769 22.655 25.9341 22.7254ZM13.0016 14.5004V10.5004C13.0016 10.1026 13.1597 9.72103 13.441 9.43972C13.7223 9.15842 14.1038 9.00038 14.5016 9.00038C14.8995 9.00038 15.281 9.15842 15.5623 9.43972C15.8436 9.72103 16.0016 10.1026 16.0016 10.5004V14.5004C16.0016 14.8982 15.8436 15.2797 15.5623 15.561C15.281 15.8423 14.8995 16.0004 14.5016 16.0004C14.1038 16.0004 13.7223 15.8423 13.441 15.561C13.1597 15.2797 13.0016 14.8982 13.0016 14.5004ZM16.5016 19.5004C16.5016 19.8959 16.3843 20.2826 16.1646 20.6115C15.9448 20.9404 15.6325 21.1968 15.267 21.3481C14.9016 21.4995 14.4994 21.5391 14.1115 21.462C13.7235 21.3848 13.3671 21.1943 13.0874 20.9146C12.8077 20.6349 12.6172 20.2785 12.5401 19.8906C12.4629 19.5026 12.5025 19.1005 12.6539 18.735C12.8053 18.3696 13.0616 18.0572 13.3905 17.8374C13.7194 17.6177 14.1061 17.5004 14.5016 17.5004C15.0321 17.5004 15.5408 17.7111 15.9159 18.0862C16.2909 18.4612 16.5016 18.9699 16.5016 19.5004Z" fill="#8F7200"/>
</svg>
