<svg viewBox="0 0 21 21" fill="none" xmlns="http://www.w3.org/2000/svg">
<path d="M13.9209 7.92094L11.7188 10.125L13.9238 12.3291C14.1351 12.5404 14.2538 12.8271 14.2538 13.1259C14.2538 13.4248 14.1351 13.7115 13.9238 13.9228C13.7124 14.1342 13.4258 14.2529 13.1269 14.2529C12.828 14.2529 12.5413 14.1342 12.33 13.9228L10.125 11.7188L7.92094 13.9238C7.7096 14.1351 7.42295 14.2538 7.12407 14.2538C6.82518 14.2538 6.53854 14.1351 6.32719 13.9238C6.11585 13.7124 5.99712 13.4258 5.99712 13.1269C5.99712 12.828 6.11585 12.5413 6.32719 12.33L8.53125 10.125L6.32907 7.92094C6.22442 7.81629 6.14141 7.69206 6.08477 7.55533C6.02814 7.4186 5.99899 7.27206 5.99899 7.12406C5.99899 6.82518 6.11772 6.53853 6.32907 6.32719C6.54041 6.11584 6.82706 5.99711 7.12594 5.99711C7.42483 5.99711 7.71147 6.11584 7.92282 6.32719L10.125 8.53125L12.3291 6.32625C12.5404 6.11491 12.8271 5.99617 13.1259 5.99617C13.4248 5.99617 13.7115 6.11491 13.9228 6.32625C14.1342 6.53759 14.2529 6.82424 14.2529 7.12313C14.2529 7.42201 14.1342 7.70866 13.9228 7.92L13.9209 7.92094ZM20.25 10.125C20.25 12.1275 19.6562 14.0851 18.5436 15.7501C17.4311 17.4152 15.8498 18.7129 13.9997 19.4793C12.1496 20.2456 10.1138 20.4461 8.14971 20.0555C6.18566 19.6648 4.38156 18.7005 2.96555 17.2845C1.54954 15.8685 0.585229 14.0643 0.194554 12.1003C-0.196122 10.1362 0.00438702 8.10043 0.770724 6.25033C1.53706 4.40023 2.83481 2.81892 4.49986 1.70637C6.1649 0.593821 8.12247 0 10.125 0C12.8094 0.00297771 15.383 1.07067 17.2812 2.96883C19.1793 4.86699 20.247 7.4406 20.25 10.125ZM18 10.125C18 8.56747 17.5381 7.04492 16.6728 5.74988C15.8075 4.45485 14.5776 3.44549 13.1386 2.84945C11.6997 2.25341 10.1163 2.09746 8.58867 2.40132C7.06107 2.70517 5.65788 3.4552 4.55654 4.55653C3.4552 5.65787 2.70518 7.06106 2.40132 8.58866C2.09746 10.1163 2.25341 11.6997 2.84945 13.1386C3.44549 14.5776 4.45485 15.8075 5.74989 16.6728C7.04493 17.5381 8.56748 18 10.125 18C12.2129 17.9978 14.2146 17.1674 15.691 15.691C17.1674 14.2146 17.9978 12.2129 18 10.125Z" fill="#CC3D3D"/>
</svg>
