<svg xmlns="http://www.w3.org/2000/svg" xmlns:xlink="http://www.w3.org/1999/xlink"><symbol viewBox="0 0 257 300" id="bars" xmlns="http://www.w3.org/2000/svg"><path d="M257.143 225v21.429c0 5.859-4.855 10.714-10.714 10.714H10.715c-5.859 0-10.714-4.855-10.714-10.714V225c0-5.859 4.855-10.714 10.714-10.714h235.714c5.859 0 10.714 4.855 10.714 10.714zm0-85.714v21.429c0 5.859-4.855 10.714-10.714 10.714H10.715c-5.859 0-10.714-4.855-10.714-10.714v-21.429c0-5.859 4.855-10.714 10.714-10.714h235.714c5.859 0 10.714 4.855 10.714 10.714zm0-85.715V75c0 5.859-4.855 10.714-10.714 10.714H10.715C4.856 85.714.001 80.859.001 75V53.571c0-5.859 4.855-10.714 10.714-10.714h235.714c5.859 0 10.714 4.855 10.714 10.714z"/></symbol><symbol viewBox="0 0 517 516" id="close" xmlns="http://www.w3.org/2000/svg"><path d="M258.5 185.761L72.984.246.891 72.339l185.516 185.516L.89 443.37l72.093 72.094L258.5 329.948l185.516 185.516 72.093-72.094-185.516-185.515L516.11 72.339 444.016.246 258.5 185.76z" fill="#000" fill-rule="evenodd"/></symbol><symbol viewBox="0 0 493 493" id="menu" xmlns="http://www.w3.org/2000/svg"><g fill="#000" fill-rule="evenodd"><path d="M0 0h493v101.955H0zM0 194.877h493v101.955H0zM0 391.045h493V493H0z"/></g></symbol><symbol viewBox="0 0 21.7 24.6" id="search" xmlns="http://www.w3.org/2000/svg"><path fill="#020202" d="M21.7 23.2l-5-6.7c3.3-3.4 3.8-8.8.9-12.7C15.7 1.4 12.8 0 9.7 0 7.6 0 5.6.7 3.9 2-.4 5.2-1.3 11.3 2 15.6c1.9 2.5 4.7 3.9 7.8 3.9 1.8 0 3.6-.5 5.1-1.5l5 6.6 1.8-1.4zm-17.9-9C1.3 10.9 2 6.3 5.3 3.8c1.3-1 2.8-1.5 4.5-1.5 2.4 0 4.5 1.1 5.9 3 2.5 3.3 1.8 7.9-1.5 10.4-1.3 1-2.8 1.5-4.5 1.5-2.3 0-4.5-1.1-5.9-3z"/></symbol></svg>