<?xml version="1.0" encoding="UTF-8"?>
<!-- Created with Inkscape (http://www.inkscape.org/) -->
<svg width="512" height="512" version="1.1" viewBox="0 0 135.47 135.47" xmlns="http://www.w3.org/2000/svg">
 <path d="m56.118 103.67 0.15744-6.4409 22.821 0.0106-0.01175 6.5143z"/>
 <g>
  <path d="m57.93 107.18 0.11072-7.8527 18.972-0.0525 0.04078 7.9577z" fill="#323233"/>
  <path d="m34.706 83.656 2.9919-4.8031 73.412 0.08671 4.2283 11.196-0.0759 7.0393-18.249 5.9895-18.791-0.49869-0.21588-4.2887-21.235-0.0892 0.13994 5.4066-20.296-0.10862z" fill="#323233"/>
  <path d="m78.711 91.336-0.09024-1.2188 8.7511-9.0642 23.713 0.33414 4.1817 9.9105-0.0413 1.8781-4.7588-10.044-23.317 0.29716z"/>
 </g>
 <g fill="none" stroke-linecap="round" stroke-width="3.5437">
  <g transform="matrix(.40914 0 0 .40917 30.672 20.375)">
   <path d="m190.55 248.45c16.678-9.6202 28.487-31.15 25.008-52.511" stroke="#4d4d4d"/>
   <path d="m202.37 248.84c11.888-8.4153 23.017-30.598 20.71-52.601" stroke="#808080"/>
   <path d="m213.68 248.32c11.886-13.235 19.06-35.685 16.655-52.612" stroke="#b3b3b3"/>
  </g>
  <g transform="matrix(.40914 0 0 .40917 -29.958 20.375)">
   <path d="m190.83 248.62c12.235-7.7659 20.603-19.229 24.161-32.585" stroke="#4d4d4d"/>
   <path d="m203.11 248.87c7.7516-6.503 16.993-19.313 19.271-31.833" stroke="#808080"/>
   <path d="m214.11 248.44c6.7411-6.6292 14.2-21.63 15.876-30.868" stroke="#b3b3b3"/>
  </g>
 </g>
 <g>
  <g transform="matrix(.40914 0 0 .40917 30.672 20.375)" stroke-width="1.6037">
   <circle cx="14.372" cy="202.65" r="43.519" fill="#231f20" stop-color="#000000"/>
   <path d="m56.653 223.52-4.0471 6.7446-7.0508-3.869 5.7001 5.7468-5.433 5.6471-5.8664-5.1798 3.9262 6.654-6.4108 4.5039-4.6366-6.3274 2.5049 7.2437-7.2978 3.0526-3.1449-7.0849 0.87194 7.5701-7.5619 1.459-1.8344-7.7472-0.62493 7.738-7.7161-0.48539-0.025082-7.4749-2.3235 7.0214-7.5043-2.2361 1.6379-7.2256-3.9461 6.5724-6.8593-3.9052 3.3868-6.8626-5.3473 5.6108-5.979-4.918 4.7325-6.0415-6.3352 4.191-4.7375-6.205 6.0983-4.9484-7.2776 2.9755-3.1801-7.0123 6.7686-3.6242-7.6051 1.2201-1.6025-7.4769 7.4438-1.9638-7.6909-0.53988 0.03522-7.806 7.6556-0.26762-7.4389-2.0502 1.7198-7.582 7.7714 1.261-6.945-3.6649 3.2507-6.9669 7.1264 3.0752-5.8443-5.066 4.7122-6.2096 6.4762 4.5586-4.7778-6.3682 5.8664-4.8669 5.3775 5.6787-3.4472-7.0712 6.834-3.5831 4.1277 6.8671-1.8849-7.747 7.5048-2.0912 2.53 7.5475-0.085716-7.9194 7.7463-0.26313 0.74088 7.6654 1.7841-7.5882 7.5114 1.1896-0.92726 7.8332 3.2406-7.1256 7.2726 2.9118-2.5904 7.3116 4.6669-6.1912 6.3652 4.2772-4.0067 6.6902 5.927-4.9938 5.4504 5.5436-5.569 5.5064 6.95-3.5288 4.1376 6.7491-6.7129 4.1502 7.5648-2.0774 2.4745 7.2982-7.5447 2.9255 8.0075-0.43772 0.91713 7.6699-7.8168 1.0886 7.5246 1.4107-0.58473 7.552-7.9377-0.44901 7.2473 2.9074-2.4552 7.3053-7.3683-2.1773z" fill="#505055" stroke="#000" stroke-width="1.6037"/>
   <g fill="#ffcb05">
    <circle cx="14.372" cy="202.65" r="27.715" stop-color="#000000" stroke="#000" stroke-linecap="round" stroke-linejoin="round" stroke-width="1.6037"/>
    <circle cx="14.372" cy="202.65" r="17.092" stop-color="#000000"/>
    <circle cx="14.372" cy="202.65" r="6.9774" stop-color="#000000"/>
   </g>
   <g>
    <circle cx="14.372" cy="202.65" r="6.4922" fill="#e6b20f" stop-color="#000000"/>
    <circle cx="14.372" cy="202.65" r="5.1043" fill="#ffcb05" stop-color="#000000"/>
    <path d="m-12.425 207.68c8.9131 29.015 46.614 26.202 53.685-0.0771-2.9652 14.037-14.432 22.025-26.883 22.207-12.012 0.17538-23.877-8.1688-26.802-22.13z" fill="#fff"/>
    <path d="m-2.3853 205.98c5.5761 18.092 29.162 16.338 33.586-0.0481-1.8551 8.7526-9.0289 13.734-16.818 13.847-7.5147 0.10936-14.938-5.0938-16.768-13.799z" fill="#fff"/>
    <path d="m-2.3853 205.98c5.5761 19.477 29.162 17.589 33.586-0.0518-1.8551 9.4226-9.0289 14.785-16.818 14.907-7.5147 0.11773-14.938-5.4836-16.768-14.855z" fill="#a4712a"/>
    <path d="m-2.6926 201.9c6.368-11.702 30.647-9.1634 34.12-0.11911-0.70271-10.316-9.1016-15.942-17-16.101-7.576-0.15237-16.139 5.5229-17.12 16.22z" fill="#a4712a"/>
    <path d="m-2.481 200.45c5.7145-18.02 29.42-16.279 33.727 0.13785-1.5044-9.5695-8.9808-14.792-16.818-14.907-7.5619-0.11165-15.499 5.2714-16.909 14.769z" fill="#7a4d06"/>
    <path d="m-12.5 197.63c8.8698-28.535 46.619-26.012 53.727-0.14725-2.9652-14.037-14.432-22.025-26.883-22.207-12.012-0.17538-23.919 8.3932-26.845 22.354z"/>
    <path d="m7.3323 203.36c2.299 8.7021 11.89 8.2896 13.988 0.28696 3.94e-4 4.9762-3.369 7.3419-6.8941 7.3386-3.4035-3e-3 -6.4297-2.4004-7.0935-7.6255z" fill="#a4712a"/>
   </g>
   <path d="m8.1178 201.17 1.5323-0.68938c1.5359-3.3237 7.0444-4.1671 9.1675-0.24037l1.8647 1.0115c-2.6712-7.9322-11.655-5.3275-12.564-0.0817z" fill="#fff"/>
  </g>
  <g transform="matrix(.40914 0 0 .40917 91.134 20.375)" stroke-width="2.4441">
   <circle cx="14.372" cy="202.65" r="43.519" fill="#231f20" stop-color="#000000"/>
   <path d="m56.653 223.52-4.0471 6.7446-7.0508-3.869 5.7001 5.7468-5.433 5.6471-5.8664-5.1798 3.9262 6.654-6.4108 4.5039-4.6366-6.3274 2.5049 7.2437-7.2978 3.0526-3.1449-7.0849 0.87194 7.5701-7.5619 1.459-1.8344-7.7472-0.62493 7.738-7.7161-0.48539-0.025082-7.4749-2.3235 7.0214-7.5043-2.2361 1.6379-7.2256-3.9461 6.5724-6.8593-3.9052 3.3868-6.8626-5.3473 5.6108-5.979-4.918 4.7325-6.0415-6.3352 4.191-4.7375-6.205 6.0983-4.9484-7.2776 2.9755-3.1801-7.0123 6.7686-3.6242-7.6051 1.2201-1.6025-7.4769 7.4438-1.9638-7.6909-0.53988 0.03522-7.806 7.6556-0.26762-7.4389-2.0502 1.7198-7.582 7.7714 1.261-6.945-3.6649 3.2507-6.9669 7.1264 3.0752-5.8443-5.066 4.7122-6.2096 6.4762 4.5586-4.7778-6.3682 5.8664-4.8669 5.3775 5.6787-3.4472-7.0712 6.834-3.5831 4.1277 6.8671-1.8849-7.747 7.5048-2.0912 2.53 7.5475-0.085716-7.9194 7.7463-0.26313 0.74088 7.6654 1.7841-7.5882 7.5114 1.1896-0.92726 7.8332 3.2406-7.1256 7.2726 2.9118-2.5904 7.3116 4.6669-6.1912 6.3652 4.2772-4.0067 6.6902 5.927-4.9938 5.4504 5.5436-5.569 5.5064 6.95-3.5288 4.1376 6.7491-6.7129 4.1502 7.5648-2.0774 2.4745 7.2982-7.5447 2.9255 8.0075-0.43772 0.91713 7.6699-7.8168 1.0886 7.5246 1.4107-0.58473 7.552-7.9377-0.44901 7.2473 2.9074-2.4552 7.3053-7.3683-2.1773z" fill="#505055" stroke="#000" stroke-width="1.1795"/>
   <g fill="#ffcb05">
    <circle cx="14.372" cy="202.65" r="27.715" stop-color="#000000" stroke="#000" stroke-linecap="round" stroke-linejoin="round" stroke-width="1.6037"/>
    <circle cx="14.372" cy="202.65" r="17.092" stop-color="#000000"/>
    <circle cx="14.372" cy="202.65" r="6.9774" stop-color="#000000"/>
   </g>
   <g>
    <circle cx="14.372" cy="202.65" r="6.4922" fill="#e6b20f" stop-color="#000000"/>
    <circle cx="14.372" cy="202.65" r="5.1043" fill="#ffcb05" stop-color="#000000"/>
    <path d="m-12.425 207.68c8.9131 29.015 46.614 26.202 53.685-0.0771-2.9652 14.037-14.432 22.025-26.883 22.207-12.012 0.17538-23.877-8.1688-26.802-22.13z" fill="#fff"/>
    <path d="m-2.3853 205.98c5.5761 18.092 29.162 16.338 33.586-0.0481-1.8551 8.7526-9.0289 13.734-16.818 13.847-7.5147 0.10936-14.938-5.0938-16.768-13.799z" fill="#fff"/>
    <path d="m-2.3853 205.98c5.5761 19.477 29.162 17.589 33.586-0.0518-1.8551 9.4226-9.0289 14.785-16.818 14.907-7.5147 0.11773-14.938-5.4836-16.768-14.855z" fill="#a4712a"/>
    <path d="m-2.6926 201.9c6.368-11.702 30.647-9.1634 34.12-0.11911-0.70271-10.316-9.1016-15.942-17-16.101-7.576-0.15237-16.139 5.5229-17.12 16.22z" fill="#a4712a"/>
    <path d="m-2.481 200.45c5.7145-18.02 29.42-16.279 33.727 0.13785-1.5044-9.5695-8.9808-14.792-16.818-14.907-7.5619-0.11165-15.499 5.2714-16.909 14.769z" fill="#7a4d06"/>
    <path d="m-12.5 197.63c8.8698-28.535 46.619-26.012 53.727-0.14725-2.9652-14.037-14.432-22.025-26.883-22.207-12.012-0.17538-23.919 8.3932-26.845 22.354z"/>
    <path d="m7.3323 203.36c2.299 8.7021 11.89 8.2896 13.988 0.28696 3.94e-4 4.9762-3.369 7.3419-6.8941 7.3386-3.4035-3e-3 -6.4297-2.4004-7.0935-7.6255z" fill="#a4712a"/>
   </g>
   <path d="m8.1178 201.17 1.5323-0.68938c1.5359-3.3237 7.0444-4.1671 9.1675-0.24037l1.8647 1.0115c-2.6712-7.9322-11.655-5.3275-12.564-0.0817z" fill="#fff"/>
  </g>
 </g>
 <g>
  <g>
   <path d="m78.621 90.118 0.1327-3.6201 6.5845-7.2703 3.7675-16.504 21.363 0.0057 7.6576 19.564 0.0612 6.9499 3.0823 0.02903-6e-3 8.9368-3.0648-0.0132-0.0963-3.6403-1.8022 0.04708-5.6383-12.391-23.521-0.01834z" fill="#ffcb05"/>
   <path d="m89.19 63.466 0.0466-0.4068 21.197 0.02359-9e-3 0.40949z" fill="#fff5cf"/>
   <path d="m88.545 76.841 0.03791-0.29394 22.795-0.0029 0.0962 0.40151z" fill="#fdfefd"/>
   <path d="m88.592 76.539 2.3067-10.953 16.359 0.03151 4.1496 10.981z" fill="#a9dfef"/>
   <path d="m88.592 76.539 2.3067-10.953 5.4705 0.02884 5.2782 10.984z" fill="#0095b7"/>
   <path d="m88.592 76.539 2.3067-10.953 16.359 0.03151 0.10505 0.22303-16.135 0.03151-2.2104 10.688z" fill="#404041"/>
  </g>
  <path d="m118.23 89.481h2.8607v8.6613" fill="none" stroke="#fff2c2" stroke-width=".465"/>
 </g>
 <g>
  <path d="m69.57 30.883c-3.3788-5.4533-6.6034-10.653-6.7415-15.694-2.3703 4.4515-7.5747 7.669-13.029 11.045-8.1808 5.0625-17.456 10.799-20.101 22.052a24.676 24.676 0 1 0 48.041 11.296c2.6458-11.252-3.0998-20.522-8.1695-28.7" fill="#009cde" stroke-width=".26458"/>
 </g>
 <g>
  <path d="m11.068 59.056 1.9855-5.0657 68.323 5.8682 2.2512-5.0761 30.572 0.1313-0.0232 3.5327-27.061 0.03667-15.442 37.936-9.1034-0.09463-0.41407-0.16803-0.46698 0.91322-2.5834-1.7951 0.36755-1.0131-7.4943-5.4172-0.37911 0.88918-2.6128-1.96 0.28566-0.95547-7.6233-5.4346-0.32083 0.72439-2.5486-1.7322 0.3266-0.91874-7.582-5.5781-0.47804 1.0479-2.5009-2.078 0.36159-0.87145-7.6108-5.4435-0.45501 0.8505-2.5432-1.9258 0.38545-0.85641z" fill="#ffcb05"/>
  <path d="m12.647 55.061 0.2949-0.73115 68.858 5.7778 2.0661-4.8661 30.172-0.02189 4e-3 0.81659-29.726 0.0074-2.0744 4.985z" fill="#fff5cf"/>
  <g fill="#ffeb9d">
   <path d="m28.494 72.866 4.9962-11.937 0.46807 0.05013-5.0705 12.126z"/>
   <path d="m38.749 80.403 7.5263-18.449 0.46807 0.05004-7.6006 18.639z"/>
   <path d="m49.013 87.741 10.124-24.704 0.46807 0.05013-10.199 24.893z"/>
   <path d="m59.158 95.226 12.761-31.092 0.46807 0.05004-12.835 31.281z"/>
  </g>
  <path d="m11.087 59.001 0.27634-0.6402 73.255 6.1615-0.32154 0.7943-8.6728-0.74237-13.032 31.787-0.45155-0.25794 12.957-31.649-12.263-0.92609-10.533 25.507-0.40819-0.32278 10.349-25.29-12.318-1.069-7.7862 19.361-0.49682-0.41013 7.6685-19.014-12.108-0.95022-5.2725 12.839-0.43918-0.34141 5.1178-12.568-12.235-1.0917-2.6889 6.6477-0.38971-0.31911 2.5219-6.3862z" fill="#b38004"/>
  <path d="m18.322 65.43 2.4042-5.7292 0.46807 0.05013-2.4785 5.9185z" fill="#ffeb9d"/>
 </g>
</svg>
