<svg width="16" height="16" viewBox="0 0 16 16" fill="none" xmlns="http://www.w3.org/2000/svg">
<path d="M14.5659 0.180674C14.5048 0.069263 14.3879 0 14.2609 0C14.1338 0 14.0169 0.069263 13.9558 0.180674L13.5121 0.990388L12.7024 1.4341C12.591 1.49515 12.5217 1.61209 12.5217 1.73913C12.5217 1.86617 12.591 1.98311 12.7024 2.04416L13.5121 2.48787L13.9558 3.29759C14.0169 3.409 14.1338 3.47826 14.2609 3.47826C14.3879 3.47826 14.5048 3.409 14.5659 3.29759L15.0096 2.48787L15.8193 2.04416C15.9307 1.98311 16 1.86617 16 1.73913C16 1.61209 15.9307 1.49515 15.8193 1.4341L15.0096 0.990388L14.5659 0.180674Z" fill="#AFAFAA"/>
<path fill-rule="evenodd" clip-rule="evenodd" d="M8 1.04348C8.29997 1.04348 8.56616 1.23576 8.66042 1.52054L10.1318 5.96595L14.4704 7.33667C14.7598 7.42809 14.9565 7.69653 14.9565 8C14.9565 8.30347 14.7598 8.57191 14.4704 8.66333L10.1318 10.0341L8.66042 14.4795C8.56616 14.7642 8.29997 14.9565 8 14.9565C7.70003 14.9565 7.43384 14.7642 7.33958 14.4795L5.86822 10.0341L1.52956 8.66333C1.24019 8.57191 1.04348 8.30347 1.04348 8C1.04348 7.69653 1.24019 7.42809 1.52956 7.33667L5.86822 5.96595L7.33958 1.52054C7.43384 1.23576 7.70003 1.04348 8 1.04348ZM8 3.95303L7.07731 6.74073C7.00713 6.95276 6.83942 7.1182 6.62646 7.18548L4.04831 8L6.62646 8.81452C6.83942 8.8818 7.00713 9.04724 7.07731 9.25927L8 12.047L8.92269 9.25927C8.99287 9.04724 9.16057 8.8818 9.37354 8.81452L11.9517 8L9.37354 7.18548C9.16057 7.1182 8.99287 6.95276 8.92269 6.74073L8 3.95303Z" fill="#AFAFAA"/>
<path d="M2.04416 12.7024C1.98311 12.591 1.86617 12.5217 1.73913 12.5217C1.61209 12.5217 1.49515 12.591 1.4341 12.7024L0.990388 13.5121L0.180674 13.9558C0.069263 14.0169 0 14.1338 0 14.2609C0 14.3879 0.069263 14.5048 0.180674 14.5659L0.990388 15.0096L1.4341 15.8193C1.49515 15.9307 1.61209 16 1.73913 16C1.86617 16 1.98311 15.9307 2.04416 15.8193L2.48787 15.0096L3.29759 14.5659C3.409 14.5048 3.47826 14.3879 3.47826 14.2609C3.47826 14.1338 3.409 14.0169 3.29759 13.9558L2.48787 13.5121L2.04416 12.7024Z" fill="#AFAFAA"/>
</svg>
