<svg width="200" height="200" viewBox="0 0 200 200" fill="none" xmlns="http://www.w3.org/2000/svg">
<circle cx="41.3335" cy="38.6671" r="8" fill="#C6C7E8"/>
<path d="M43.3328 117.333L43.5897 123.13C44.2928 139 56.9988 151.706 72.8689 152.409L78.6662 152.666L72.8689 152.923C56.9988 153.626 44.2928 166.332 43.5897 182.202L43.3328 188L43.076 182.202C42.3728 166.332 29.6669 153.626 13.7968 152.923L7.99951 152.666L13.7968 152.409C29.6669 151.706 42.3728 139 43.076 123.13L43.3328 117.333Z" fill="url(#paint0_linear_3982_213)"/>
<path d="M121.335 13.3331C123 50.9136 153.088 81.0014 190.669 82.6665C153.088 84.3315 123 114.419 121.335 152C119.67 114.419 89.5824 84.3315 52.002 82.6665C89.5824 81.0014 119.67 50.9136 121.335 13.3331Z" fill="url(#paint1_linear_3982_213)"/>
<defs>
<linearGradient id="paint0_linear_3982_213" x1="49.4472" y1="186.981" x2="34.5835" y2="140.266" gradientUnits="userSpaceOnUse">
<stop stop-color="#6941C6"/>
<stop offset="1" stop-color="#C6C7E8"/>
</linearGradient>
<linearGradient id="paint1_linear_3982_213" x1="133.333" y1="150" x2="104.167" y2="58.3333" gradientUnits="userSpaceOnUse">
<stop stop-color="#6941C6"/>
<stop offset="1" stop-color="#C6C7E8"/>
</linearGradient>
</defs>
</svg>
